<?xml version="1.0" standalone="no"?>
<!DOCTYPE svg PUBLIC "-//W3C//DTD SVG 20010904//EN"
 "http://www.w3.org/TR/2001/REC-SVG-20010904/DTD/svg10.dtd">
<svg version="1.0" xmlns="http://www.w3.org/2000/svg"
 width="128.000000pt" height="128.000000pt" viewBox="0 0 128.000000 128.000000"
 preserveAspectRatio="xMidYMid meet">

<g transform="translate(0.000000,128.000000) scale(0.100000,-0.100000)"
fill="#000000" stroke="none">
<path d="M651 1128 c-47 -23 -95 -86 -107 -142 -4 -17 -14 -87 -23 -156 l-16
-124 -97 -26 -98 -25 0 -47 c0 -57 2 -57 104 -28 38 11 72 18 74 15 2 -2 1
-40 -3 -83 l-7 -80 -48 0 c-110 -1 -186 -90 -166 -196 14 -72 73 -116 156
-116 62 0 114 21 157 62 l32 31 33 -25 c157 -120 298 -78 368 109 22 59 19 72
-24 112 -19 18 -27 21 -30 10 -52 -147 -76 -179 -136 -179 -30 0 -52 10 -99
46 -33 25 -63 49 -66 54 -2 4 4 77 15 161 11 85 20 159 20 164 0 6 28 26 61
45 153 87 225 239 169 355 -28 58 -79 85 -161 85 -45 0 -77 -6 -108 -22z m165
-106 c41 -26 19 -116 -44 -178 -24 -24 -48 -44 -54 -44 -12 0 -3 105 14 160
18 59 51 84 84 62z m-372 -698 c36 -14 2 -84 -39 -84 -42 0 -52 49 -17 78 18
13 32 15 56 6z"/>
</g>
</svg>
